<svg width="245" height="95" viewBox="0 0 245 95" fill="none" xmlns="http://www.w3.org/2000/svg">
<path d="M5.8 83.5H16.5V89.2V89.2222C16.5 90.0435 16.5 90.6905 16.5425 91.2111C16.5859 91.7423 16.6761 92.1859 16.8815 92.589C17.217 93.2475 17.7525 93.783 18.411 94.1185C18.8141 94.3239 19.2577 94.4141 19.7889 94.4575C20.3095 94.5 20.9565 94.5 21.7778 94.5H21.8H223.2H223.222C224.043 94.5 224.69 94.5 225.211 94.4575C225.742 94.4141 226.186 94.3239 226.589 94.1185C227.248 93.783 227.783 93.2475 228.119 92.589C228.324 92.1859 228.414 91.7423 228.457 91.2111C228.5 90.6904 228.5 90.0433 228.5 89.2218V89.2V83.5H239.2H239.222C240.043 83.5 240.69 83.5 241.211 83.4575C241.742 83.4141 242.186 83.3239 242.589 83.1185C243.248 82.783 243.783 82.2475 244.119 81.589C244.324 81.1859 244.414 80.7423 244.457 80.2111C244.5 79.6904 244.5 79.0433 244.5 78.2218V78.2V15.8V15.7782C244.5 14.9567 244.5 14.3096 244.457 13.7889C244.414 13.2577 244.324 12.8141 244.119 12.411C243.783 11.7525 243.248 11.217 242.589 10.8815C242.186 10.6761 241.742 10.5859 241.211 10.5425C240.69 10.5 240.043 10.5 239.222 10.5H239.2H228.5V5.8V5.7782C228.5 4.95674 228.5 4.30963 228.457 3.78889C228.414 3.25771 228.324 2.81413 228.119 2.41104C227.783 1.75246 227.248 1.21703 226.589 0.881478C226.186 0.676087 225.742 0.585932 225.211 0.542533C224.69 0.499994 224.043 0.499997 223.222 0.5L223.2 0.5H21.8L21.7778 0.5C20.9565 0.499997 20.3095 0.499994 19.7889 0.542533C19.2577 0.585932 18.8141 0.676087 18.411 0.881477C17.7525 1.21703 17.217 1.75247 16.8815 2.41103C16.6761 2.81413 16.5859 3.25771 16.5425 3.78889C16.5 4.30954 16.5 4.95652 16.5 5.77778V5.8V10.5H5.8H5.77778C4.95651 10.5 4.30954 10.5 3.78889 10.5425C3.25771 10.5859 2.81413 10.6761 2.41103 10.8815C1.75247 11.217 1.21703 11.7525 0.881477 12.411C0.676087 12.8141 0.585932 13.2577 0.542533 13.7889C0.499994 14.3095 0.499997 14.9565 0.5 15.7778L0.5 15.8V78.2L0.5 78.2222C0.499997 79.0435 0.499994 79.6905 0.542533 80.2111C0.585932 80.7423 0.676087 81.1859 0.881476 81.589C1.21703 82.2475 1.75247 82.783 2.41103 83.1185C2.81413 83.3239 3.25771 83.4141 3.78889 83.4575C4.30954 83.5 4.95652 83.5 5.77778 83.5H5.8Z" fill="#FFFF00" stroke="black"/>
<path d="M15.8429 63C14.5949 63 13.6349 62.664 12.9629 61.992C12.2909 61.32 11.9549 60.36 11.9549 59.112V33.048C11.9549 31.8 12.2909 30.84 12.9629 30.168C13.6349 29.496 14.5949 29.16 15.8429 29.16H25.2029C30.9949 29.16 35.4589 30.632 38.5949 33.576C41.7629 36.488 43.3469 40.648 43.3469 46.056C43.3469 48.776 42.9309 51.192 42.0989 53.304C41.2989 55.384 40.1309 57.144 38.5949 58.584C37.0589 60.024 35.1709 61.128 32.9309 61.896C30.6909 62.632 28.1149 63 25.2029 63H15.8429ZM19.3949 56.904H24.7709C26.5949 56.904 28.1789 56.68 29.5229 56.232C30.8669 55.784 31.9869 55.112 32.8829 54.216C33.7789 53.32 34.4509 52.2 34.8989 50.856C35.3469 49.48 35.5709 47.88 35.5709 46.056C35.5709 42.408 34.6589 39.704 32.8349 37.944C31.0429 36.152 28.3549 35.256 24.7709 35.256H19.3949V56.904ZM64.8228 63.528C61.4948 63.528 58.5668 62.808 56.0388 61.368C53.5428 59.896 51.5908 57.848 50.1828 55.224C48.8068 52.6 48.1188 49.544 48.1188 46.056C48.1188 43.4 48.5028 41.016 49.2708 38.904C50.0708 36.76 51.2068 34.936 52.6788 33.432C54.1508 31.896 55.9108 30.712 57.9588 29.88C60.0388 29.048 62.3268 28.632 64.8228 28.632C68.2148 28.632 71.1588 29.352 73.6548 30.792C76.1508 32.232 78.0868 34.264 79.4628 36.888C80.8708 39.48 81.5748 42.52 81.5748 46.008C81.5748 48.664 81.1748 51.064 80.3748 53.208C79.5748 55.352 78.4388 57.192 76.9668 58.728C75.4948 60.264 73.7348 61.448 71.6868 62.28C69.6388 63.112 67.3508 63.528 64.8228 63.528ZM64.8228 57.192C66.7108 57.192 68.3108 56.76 69.6228 55.896C70.9668 55 71.9908 53.72 72.6948 52.056C73.4308 50.36 73.7988 48.36 73.7988 46.056C73.7988 42.536 73.0148 39.816 71.4468 37.896C69.8788 35.944 67.6708 34.968 64.8228 34.968C62.9668 34.968 61.3668 35.4 60.0228 36.264C58.6788 37.128 57.6548 38.392 56.9508 40.056C56.2468 41.72 55.8948 43.72 55.8948 46.056C55.8948 49.544 56.6788 52.28 58.2468 54.264C59.8148 56.216 62.0068 57.192 64.8228 57.192ZM91.0739 63.432C89.8579 63.432 88.9299 63.096 88.2899 62.424C87.6499 61.752 87.3299 60.808 87.3299 59.592V32.568C87.3299 31.352 87.6499 30.408 88.2899 29.736C88.9299 29.064 89.8579 28.728 91.0739 28.728C92.2579 28.728 93.1699 29.064 93.8099 29.736C94.4499 30.408 94.7699 31.352 94.7699 32.568V42.744H110.514V32.568C110.514 31.352 110.834 30.408 111.474 29.736C112.114 29.064 113.026 28.728 114.21 28.728C115.426 28.728 116.354 29.064 116.994 29.736C117.634 30.408 117.954 31.352 117.954 32.568V59.592C117.954 60.808 117.634 61.752 116.994 62.424C116.354 63.096 115.426 63.432 114.21 63.432C113.026 63.432 112.114 63.096 111.474 62.424C110.834 61.752 110.514 60.808 110.514 59.592V48.936H94.7699V59.592C94.7699 60.808 94.4499 61.752 93.8099 62.424C93.2019 63.096 92.2899 63.432 91.0739 63.432ZM128.575 63C127.359 63 126.415 62.664 125.743 61.992C125.103 61.32 124.783 60.392 124.783 59.208V32.856C124.783 31.608 125.103 30.664 125.743 30.024C126.383 29.384 127.311 29.064 128.527 29.064C129.711 29.064 130.623 29.384 131.263 30.024C131.903 30.664 132.223 31.608 132.223 32.856V56.712H145.087C146.111 56.712 146.895 56.984 147.439 57.528C148.015 58.072 148.303 58.84 148.303 59.832C148.303 60.856 148.015 61.64 147.439 62.184C146.895 62.728 146.111 63 145.087 63H128.575ZM156.043 63.432C154.827 63.432 153.899 63.096 153.259 62.424C152.619 61.752 152.299 60.808 152.299 59.592V32.568C152.299 31.352 152.619 30.408 153.259 29.736C153.899 29.064 154.827 28.728 156.043 28.728C157.227 28.728 158.139 29.064 158.779 29.736C159.419 30.408 159.739 31.352 159.739 32.568V59.592C159.739 60.808 159.419 61.752 158.779 62.424C158.171 63.096 157.259 63.432 156.043 63.432ZM167.509 63.432C166.613 63.432 165.877 63.224 165.301 62.808C164.757 62.392 164.405 61.832 164.245 61.128C164.117 60.424 164.261 59.64 164.677 58.776L176.965 31.848C177.477 30.76 178.085 29.976 178.789 29.496C179.493 28.984 180.309 28.728 181.237 28.728C182.165 28.728 182.981 28.984 183.685 29.496C184.389 29.976 184.981 30.76 185.461 31.848L197.845 58.776C198.261 59.64 198.405 60.44 198.277 61.176C198.181 61.88 197.861 62.44 197.317 62.856C196.773 63.24 196.069 63.432 195.205 63.432C194.117 63.432 193.269 63.176 192.661 62.664C192.085 62.152 191.573 61.352 191.125 60.264L188.245 53.592L191.221 55.656H171.205L174.181 53.592L171.349 60.264C170.869 61.384 170.357 62.2 169.813 62.712C169.301 63.192 168.533 63.432 167.509 63.432ZM181.141 37.08L174.997 51.72L173.701 49.848H188.725L187.429 51.72L181.237 37.08H181.141ZM206.577 63C205.329 63 204.369 62.664 203.697 61.992C203.025 61.32 202.689 60.36 202.689 59.112V33.048C202.689 31.8 203.025 30.84 203.697 30.168C204.369 29.496 205.329 29.16 206.577 29.16H215.937C221.729 29.16 226.193 30.632 229.329 33.576C232.497 36.488 234.081 40.648 234.081 46.056C234.081 48.776 233.665 51.192 232.833 53.304C232.033 55.384 230.865 57.144 229.329 58.584C227.793 60.024 225.905 61.128 223.665 61.896C221.425 62.632 218.849 63 215.937 63H206.577ZM210.129 56.904H215.505C217.329 56.904 218.913 56.68 220.257 56.232C221.601 55.784 222.721 55.112 223.617 54.216C224.513 53.32 225.185 52.2 225.633 50.856C226.081 49.48 226.305 47.88 226.305 46.056C226.305 42.408 225.393 39.704 223.569 37.944C221.777 36.152 219.089 35.256 215.505 35.256H210.129V56.904Z" fill="#4200FF"/>
<path d="M12.9629 61.992L13.67 61.2849L12.9629 61.992ZM12.9629 30.168L13.67 30.8751L13.67 30.8751L12.9629 30.168ZM38.5949 33.576L37.9104 34.3051L37.9181 34.3122L38.5949 33.576ZM42.0989 53.304L41.1684 52.9375L41.1655 52.945L42.0989 53.304ZM38.5949 58.584L39.2788 59.3135L38.5949 58.584ZM32.9309 61.896L33.2431 62.8461L33.2552 62.8419L32.9309 61.896ZM19.3949 56.904H18.3949V57.904H19.3949V56.904ZM29.5229 56.232L29.2066 55.2833L29.5229 56.232ZM32.8829 54.216L32.1758 53.5089L32.8829 54.216ZM34.8989 50.856L35.8476 51.1722L35.8497 51.1656L34.8989 50.856ZM32.8349 37.944L32.1278 38.6511L32.1341 38.6574L32.1405 38.6636L32.8349 37.944ZM19.3949 35.256V34.256H18.3949V35.256H19.3949ZM15.8429 62C14.7738 62 14.1012 61.7161 13.67 61.2849L12.2558 62.6991C13.1686 63.6119 14.4159 64 15.8429 64V62ZM13.67 61.2849C13.2388 60.8537 12.9549 60.1811 12.9549 59.112H10.9549C10.9549 60.5389 11.343 61.7863 12.2558 62.6991L13.67 61.2849ZM12.9549 59.112V33.048H10.9549V59.112H12.9549ZM12.9549 33.048C12.9549 31.9789 13.2388 31.3063 13.67 30.8751L12.2558 29.4609C11.343 30.3737 10.9549 31.6211 10.9549 33.048H12.9549ZM13.67 30.8751C14.1012 30.4439 14.7738 30.16 15.8429 30.16V28.16C14.4159 28.16 13.1686 28.5481 12.2558 29.4609L13.67 30.8751ZM15.8429 30.16H25.2029V28.16H15.8429V30.16ZM25.2029 30.16C30.8304 30.16 35.0164 31.5882 37.9104 34.3051L39.2793 32.8469C35.9014 29.6758 31.1593 28.16 25.2029 28.16V30.16ZM37.9181 34.3122C40.8297 36.9885 42.3469 40.851 42.3469 46.056H44.3469C44.3469 40.445 42.6961 35.9875 39.2716 32.8398L37.9181 34.3122ZM42.3469 46.056C42.3469 48.6748 41.9464 50.9628 41.1685 52.9375L43.0293 53.6705C43.9154 51.4212 44.3469 48.8772 44.3469 46.056H42.3469ZM41.1655 52.945C40.4164 54.8927 39.3305 56.5236 37.9109 57.8545L39.2788 59.3135C40.9312 57.7644 42.1813 55.8753 43.0322 53.663L41.1655 52.945ZM37.9109 57.8545C36.4903 59.1863 34.7294 60.2222 32.6066 60.9501L33.2552 62.8419C35.6123 62.0338 37.6274 60.8617 39.2788 59.3135L37.9109 57.8545ZM32.6187 60.946C30.4999 61.6421 28.0328 62 25.2029 62V64C28.197 64 30.8818 63.6219 33.243 62.846L32.6187 60.946ZM25.2029 62H15.8429V64H25.2029V62ZM19.3949 57.904H24.7709V55.904H19.3949V57.904ZM24.7709 57.904C26.6731 57.904 28.3686 57.6708 29.8391 57.1807L29.2066 55.2833C27.9891 55.6892 26.5167 55.904 24.7709 55.904V57.904ZM29.8391 57.1807C31.3128 56.6894 32.5718 55.9413 33.59 54.9231L32.1758 53.5089C31.4019 54.2827 30.4209 54.8786 29.2066 55.2833L29.8391 57.1807ZM33.59 54.9231C34.6081 53.9049 35.3563 52.6459 35.8476 51.1722L33.9502 50.5398C33.5454 51.7541 32.9496 52.7351 32.1758 53.5089L33.59 54.9231ZM35.8497 51.1656C36.3375 49.6675 36.5709 47.959 36.5709 46.056H34.5709C34.5709 47.801 34.3563 49.2925 33.948 50.5464L35.8497 51.1656ZM36.5709 46.056C36.5709 42.257 35.6209 39.2426 33.5292 37.2244L32.1405 38.6636C33.6968 40.1654 34.5709 42.559 34.5709 46.056H36.5709ZM33.542 37.2369C31.4963 35.1912 28.509 34.256 24.7709 34.256V36.256C28.2007 36.256 30.5894 37.1128 32.1278 38.6511L33.542 37.2369ZM24.7709 34.256H19.3949V36.256H24.7709V34.256ZM18.3949 35.256V56.904H20.3949V35.256H18.3949ZM56.0387 61.368L55.5308 62.2294L55.5373 62.2332L55.5438 62.2369L56.0387 61.368ZM50.1828 55.224L49.2971 55.6884L49.3016 55.6968L50.1828 55.224ZM49.2708 38.904L48.3338 38.5544L48.331 38.5623L49.2708 38.904ZM52.6787 33.432L53.3935 34.1315L53.4007 34.1239L52.6787 33.432ZM57.9588 29.88L57.5874 28.9515L57.5824 28.9535L57.9588 29.88ZM73.6548 30.792L73.155 31.6582L73.6548 30.792ZM79.4628 36.888L78.5771 37.3524L78.5805 37.3589L78.584 37.3653L79.4628 36.888ZM80.3748 53.208L81.3117 53.5576L80.3748 53.208ZM76.9668 58.728L77.6887 59.4199L76.9668 58.728ZM71.6868 62.28L71.3104 61.3535L71.6868 62.28ZM69.6227 55.896L70.1728 56.7312L70.1775 56.7281L69.6227 55.896ZM72.6947 52.056L71.7774 51.6579L71.7738 51.6664L72.6947 52.056ZM71.4467 37.896L70.6671 38.5223L70.6722 38.5285L71.4467 37.896ZM56.9508 40.056L57.8717 40.4456L56.9508 40.056ZM58.2467 54.264L57.4622 54.8841L57.4671 54.8903L58.2467 54.264ZM64.8228 62.528C61.643 62.528 58.8903 61.8414 56.5337 60.4991L55.5438 62.2369C58.2432 63.7746 61.3465 64.528 64.8228 64.528V62.528ZM56.5467 60.5066C54.2128 59.1302 52.3879 57.2187 51.0639 54.7512L49.3016 55.6968C50.7936 58.4773 52.8727 60.6618 55.5308 62.2294L56.5467 60.5066ZM51.0684 54.7596C49.7798 52.3022 49.1188 49.4109 49.1188 46.056H47.1188C47.1188 49.6771 47.8337 52.8978 49.2971 55.6884L51.0684 54.7596ZM49.1188 46.056C49.1188 43.4958 49.4889 41.2303 50.2105 39.2457L48.331 38.5623C47.5166 40.8017 47.1188 43.3042 47.1188 46.056H49.1188ZM50.2077 39.2536C50.9631 37.2289 52.0274 35.5272 53.3934 34.1315L51.9641 32.7325C50.3861 34.3448 49.1784 36.2911 48.3338 38.5544L50.2077 39.2536ZM53.4007 34.1239C54.7715 32.6935 56.4123 31.5876 58.3351 30.8065L57.5824 28.9535C55.4092 29.8364 53.53 31.0985 51.9568 32.7401L53.4007 34.1239ZM58.3301 30.8085C60.2793 30.0288 62.4395 29.632 64.8228 29.632V27.632C62.214 27.632 59.7982 28.0672 57.5874 28.9515L58.3301 30.8085ZM64.8228 29.632C68.0706 29.632 70.836 30.3203 73.155 31.6582L74.1545 29.9258C71.4815 28.3837 68.3589 27.632 64.8228 27.632V29.632ZM73.155 31.6582C75.4821 33.0007 77.2865 34.8912 78.5771 37.3524L80.3484 36.4236C78.887 33.6368 76.8194 31.4633 74.1545 29.9258L73.155 31.6582ZM78.584 37.3653C79.8991 39.7862 80.5748 42.6563 80.5748 46.008H82.5748C82.5748 42.3837 81.8424 39.1738 80.3415 36.4107L78.584 37.3653ZM80.5748 46.008C80.5748 48.5635 80.19 50.8426 79.4379 52.8584L81.3117 53.5576C82.1595 51.2854 82.5748 48.7645 82.5748 46.008H80.5748ZM79.4379 52.8584C78.6818 54.8846 77.6156 56.6056 76.2448 58.0361L77.6887 59.4199C79.2619 57.7784 80.4677 55.8194 81.3117 53.5576L79.4379 52.8584ZM76.2448 58.0361C74.874 59.4665 73.2332 60.5724 71.3104 61.3535L72.0631 63.2065C74.2363 62.3236 76.1155 61.0615 77.6887 59.4199L76.2448 58.0361ZM71.3104 61.3535C69.3978 62.1305 67.2401 62.528 64.8228 62.528V64.528C67.4614 64.528 69.8797 64.0935 72.0631 63.2065L71.3104 61.3535ZM64.8228 58.192C66.8663 58.192 68.667 57.7228 70.1727 56.7312L69.0728 55.0608C67.9545 55.7972 66.5552 56.192 64.8228 56.192V58.192ZM70.1775 56.7281C71.7031 55.711 72.8449 54.2676 73.6157 52.4456L71.7738 51.6664C71.1366 53.1724 70.2304 54.289 69.0681 55.0639L70.1775 56.7281ZM73.6121 52.4541C74.4143 50.6056 74.7988 48.4643 74.7988 46.056H72.7988C72.7988 48.2557 72.4472 50.1144 71.7774 51.6579L73.6121 52.4541ZM74.7988 46.056C74.7988 42.4004 73.9856 39.4238 72.2213 37.2635L70.6722 38.5285C72.0439 40.2082 72.7988 42.6716 72.7988 46.056H74.7988ZM72.2264 37.2697C70.4409 35.0471 67.9268 33.968 64.8228 33.968V35.968C67.4147 35.968 69.3166 36.8409 70.6671 38.5223L72.2264 37.2697ZM64.8228 33.968C62.8066 33.968 61.012 34.4392 59.482 35.4228L60.5635 37.1052C61.7215 36.3607 63.1269 35.968 64.8228 35.968V33.968ZM59.482 35.4228C57.9471 36.4095 56.8016 37.8421 56.0298 39.6664L57.8717 40.4456C58.5079 38.9419 59.4104 37.8465 60.5635 37.1052L59.482 35.4228ZM56.0298 39.6664C55.2608 41.484 54.8948 43.6236 54.8948 46.056H56.8948C56.8948 43.8164 57.2327 41.956 57.8717 40.4456L56.0298 39.6664ZM54.8948 46.056C54.8948 49.6848 55.7101 52.6671 57.4622 54.8841L59.0313 53.6439C57.6474 51.8929 56.8948 49.4032 56.8948 46.056H54.8948ZM57.4671 54.8903C59.2502 57.11 61.7465 58.192 64.8228 58.192V56.192C62.267 56.192 60.3793 55.322 59.0264 53.6377L57.4671 54.8903ZM88.2899 62.424L89.014 61.7343L88.2899 62.424ZM88.2899 29.736L89.014 30.4257V30.4257L88.2899 29.736ZM93.8099 29.736L93.0857 30.4257V30.4257L93.8099 29.736ZM94.7699 42.744H93.7699V43.744H94.7699V42.744ZM110.514 42.744V43.744H111.514V42.744H110.514ZM111.474 29.736L110.75 29.0463L111.474 29.736ZM116.994 29.736L116.27 30.4257V30.4257L116.994 29.736ZM116.994 62.424L116.27 61.7343L116.994 62.424ZM111.474 62.424L110.75 63.1137L111.474 62.424ZM110.514 48.936H111.514V47.936H110.514V48.936ZM94.7699 48.936V47.936H93.7699V48.936H94.7699ZM93.8099 62.424L93.0857 61.7343L93.0769 61.7436L93.0683 61.7531L93.8099 62.424ZM91.0739 62.432C90.0426 62.432 89.4116 62.1518 89.014 61.7343L87.5657 63.1137C88.4481 64.0402 89.6732 64.432 91.0739 64.432V62.432ZM89.014 61.7343C88.6007 61.3003 88.3299 60.6334 88.3299 59.592H86.3299C86.3299 60.9826 86.6991 62.2037 87.5657 63.1137L89.014 61.7343ZM88.3299 59.592V32.568H86.3299V59.592H88.3299ZM88.3299 32.568C88.3299 31.5266 88.6007 30.8597 89.014 30.4257L87.5657 29.0463C86.6991 29.9563 86.3299 31.1774 86.3299 32.568H88.3299ZM89.014 30.4257C89.4116 30.0082 90.0426 29.728 91.0739 29.728V27.728C89.6732 27.728 88.4481 28.1198 87.5657 29.0463L89.014 30.4257ZM91.0739 29.728C92.064 29.728 92.6832 30.003 93.0857 30.4257L94.534 29.0463C93.6565 28.125 92.4517 27.728 91.0739 27.728V29.728ZM93.0857 30.4257C93.4991 30.8597 93.7699 31.5266 93.7699 32.568H95.7699C95.7699 31.1774 95.4007 29.9563 94.534 29.0463L93.0857 30.4257ZM93.7699 32.568V42.744H95.7699V32.568H93.7699ZM94.7699 43.744H110.514V41.744H94.7699V43.744ZM111.514 42.744V32.568H109.514V42.744H111.514ZM111.514 32.568C111.514 31.5266 111.785 30.8597 112.198 30.4257L110.75 29.0463C109.883 29.9563 109.514 31.1774 109.514 32.568H111.514ZM112.198 30.4257C112.601 30.003 113.22 29.728 114.21 29.728V27.728C112.832 27.728 111.627 28.125 110.75 29.0463L112.198 30.4257ZM114.21 29.728C115.241 29.728 115.872 30.0082 116.27 30.4257L117.718 29.0463C116.836 28.1198 115.611 27.728 114.21 27.728V29.728ZM116.27 30.4257C116.683 30.8597 116.954 31.5266 116.954 32.568H118.954C118.954 31.1774 118.585 29.9563 117.718 29.0463L116.27 30.4257ZM116.954 32.568V59.592H118.954V32.568H116.954ZM116.954 59.592C116.954 60.6334 116.683 61.3003 116.27 61.7343L117.718 63.1137C118.585 62.2037 118.954 60.9826 118.954 59.592H116.954ZM116.27 61.7343C115.872 62.1518 115.241 62.432 114.21 62.432V64.432C115.611 64.432 116.836 64.0402 117.718 63.1137L116.27 61.7343ZM114.21 62.432C113.22 62.432 112.601 62.157 112.198 61.7343L110.75 63.1137C111.627 64.035 112.832 64.432 114.21 64.432V62.432ZM112.198 61.7343C111.785 61.3003 111.514 60.6334 111.514 59.592H109.514C109.514 60.9826 109.883 62.2037 110.75 63.1137L112.198 61.7343ZM111.514 59.592V48.936H109.514V59.592H111.514ZM110.514 47.936H94.7699V49.936H110.514V47.936ZM93.7699 48.936V59.592H95.7699V48.936H93.7699ZM93.7699 59.592C93.7699 60.6334 93.4991 61.3003 93.0857 61.7343L94.534 63.1137C95.4007 62.2037 95.7699 60.9826 95.7699 59.592H93.7699ZM93.0683 61.7531C92.7086 62.1507 92.1085 62.432 91.0739 62.432V64.432C92.4713 64.432 93.6952 64.0413 94.5514 63.0949L93.0683 61.7531ZM125.743 61.992L125.019 62.6817L125.027 62.6905L125.036 62.6991L125.743 61.992ZM131.263 30.024L131.97 29.3169L131.263 30.024ZM132.223 56.712H131.223V57.712H132.223V56.712ZM147.439 57.528L146.732 58.2351L146.742 58.2452L146.752 58.255L147.439 57.528ZM147.439 62.184L146.752 61.457L146.742 61.4668L146.732 61.4769L147.439 62.184ZM128.575 62C127.547 62 126.886 61.7208 126.45 61.2849L125.036 62.6991C125.944 63.6072 127.171 64 128.575 64V62ZM126.467 61.3023C126.049 60.8636 125.783 60.209 125.783 59.208H123.783C123.783 60.575 124.157 61.7764 125.019 62.6817L126.467 61.3023ZM125.783 59.208V32.856H123.783V59.208H125.783ZM125.783 32.856C125.783 31.7707 126.059 31.1217 126.45 30.7311L125.036 29.3169C124.147 30.2063 123.783 31.4453 123.783 32.856H125.783ZM126.45 30.7311C126.845 30.336 127.482 30.064 128.527 30.064V28.064C127.14 28.064 125.921 28.432 125.036 29.3169L126.45 30.7311ZM128.527 30.064C129.531 30.064 130.156 30.3312 130.556 30.7311L131.97 29.3169C131.09 28.4368 129.891 28.064 128.527 28.064V30.064ZM130.556 30.7311C130.947 31.1217 131.223 31.7707 131.223 32.856H133.223C133.223 31.4453 132.859 30.2063 131.97 29.3169L130.556 30.7311ZM131.223 32.856V56.712H133.223V32.856H131.223ZM132.223 57.712H145.087V55.712H132.223V57.712ZM145.087 57.712C145.937 57.712 146.431 57.9343 146.732 58.2351L148.146 56.8209C147.359 56.0337 146.285 55.712 145.087 55.712V57.712ZM146.752 58.255C147.08 58.5647 147.303 59.0412 147.303 59.832H149.303C149.303 58.6388 148.95 57.5793 148.126 56.801L146.752 58.255ZM147.303 59.832C147.303 60.6657 147.074 61.1531 146.752 61.457L148.126 62.911C148.956 62.1269 149.303 61.0463 149.303 59.832H147.303ZM146.732 61.4769C146.431 61.7777 145.937 62 145.087 62V64C146.285 64 147.359 63.6783 148.146 62.8911L146.732 61.4769ZM145.087 62H128.575V64H145.087V62ZM153.259 62.424L153.983 61.7343L153.259 62.424ZM153.259 29.736L153.983 30.4257V30.4257L153.259 29.736ZM158.779 29.736L158.054 30.4257V30.4257L158.779 29.736ZM158.779 62.424L158.054 61.7343L158.046 61.7436L158.037 61.7531L158.779 62.424ZM156.043 62.432C155.011 62.432 154.38 62.1518 153.983 61.7343L152.534 63.1137C153.417 64.0402 154.642 64.432 156.043 64.432V62.432ZM153.983 61.7343C153.569 61.3003 153.299 60.6334 153.299 59.592H151.299C151.299 60.9826 151.668 62.2037 152.534 63.1137L153.983 61.7343ZM153.299 59.592V32.568H151.299V59.592H153.299ZM153.299 32.568C153.299 31.5266 153.569 30.8597 153.983 30.4257L152.534 29.0463C151.668 29.9563 151.299 31.1774 151.299 32.568H153.299ZM153.983 30.4257C154.38 30.0082 155.011 29.728 156.043 29.728V27.728C154.642 27.728 153.417 28.1198 152.534 29.0463L153.983 30.4257ZM156.043 29.728C157.033 29.728 157.652 30.003 158.054 30.4257L159.503 29.0463C158.625 28.125 157.42 27.728 156.043 27.728V29.728ZM158.054 30.4257C158.468 30.8597 158.739 31.5266 158.739 32.568H160.739C160.739 31.1774 160.369 29.9563 159.503 29.0463L158.054 30.4257ZM158.739 32.568V59.592H160.739V32.568H158.739ZM158.739 59.592C158.739 60.6334 158.468 61.3003 158.054 61.7343L159.503 63.1137C160.369 62.2037 160.739 60.9826 160.739 59.592H158.739ZM158.037 61.7531C157.677 62.1507 157.077 62.432 156.043 62.432V64.432C157.44 64.432 158.664 64.0413 159.52 63.0949L158.037 61.7531ZM165.301 62.808L164.693 63.6024L164.704 63.6107L164.715 63.6187L165.301 62.808ZM164.245 61.128L163.261 61.3069L163.265 61.3284L163.269 61.3496L164.245 61.128ZM164.677 58.776L165.578 59.2098L165.582 59.2005L165.586 59.1911L164.677 58.776ZM176.965 31.848L176.06 31.4222L176.055 31.4329L176.965 31.848ZM178.789 29.496L179.352 30.3222L179.365 30.3137L179.377 30.3047L178.789 29.496ZM183.685 29.496L183.096 30.3047L183.109 30.3137L183.121 30.3222L183.685 29.496ZM185.461 31.848L184.546 32.2516L184.549 32.2588L184.552 32.2658L185.461 31.848ZM197.845 58.776L196.936 59.1938L196.94 59.2019L196.944 59.2098L197.845 58.776ZM198.277 61.176L197.291 61.0047L197.288 61.0227L197.286 61.0409L198.277 61.176ZM197.317 62.856L197.893 63.673L197.909 63.662L197.924 63.6504L197.317 62.856ZM192.661 62.664L191.996 63.4114L192.006 63.4203L192.016 63.4289L192.661 62.664ZM191.125 60.264L192.049 59.8833L192.046 59.8754L192.043 59.8677L191.125 60.264ZM188.245 53.592L188.815 52.7703L185.94 50.7768L187.327 53.9883L188.245 53.592ZM191.221 55.656V56.656H194.417L191.791 54.8343L191.221 55.656ZM171.205 55.656L170.635 54.8343L168.008 56.656H171.205V55.656ZM174.181 53.592L175.101 53.9827L176.452 50.7995L173.611 52.7703L174.181 53.592ZM171.349 60.264L172.268 60.6579L172.269 60.6547L171.349 60.264ZM169.813 62.712L170.497 63.4415L170.498 63.4402L169.813 62.712ZM181.141 37.08V36.08H180.476L180.219 36.693L181.141 37.08ZM174.997 51.72L174.174 52.2892L175.213 53.7891L175.919 52.107L174.997 51.72ZM173.701 49.848V48.848H171.792L172.878 50.4172L173.701 49.848ZM188.725 49.848L189.547 50.4172L190.633 48.848H188.725V49.848ZM187.429 51.72L186.508 52.1095L187.216 53.7841L188.251 52.2892L187.429 51.72ZM181.237 37.08L182.158 36.6905L181.899 36.08H181.237V37.08ZM167.509 62.432C166.768 62.432 166.252 62.2614 165.886 61.9973L164.715 63.6187C165.501 64.1866 166.458 64.432 167.509 64.432V62.432ZM165.908 62.0136C165.56 61.7478 165.331 61.3957 165.22 60.9064L163.269 61.3496C163.478 62.2683 163.953 63.0362 164.693 63.6024L165.908 62.0136ZM165.229 60.9491C165.149 60.5133 165.222 59.9474 165.578 59.2098L163.776 58.3422C163.299 59.3326 163.084 60.3347 163.261 61.3069L165.229 60.9491ZM165.586 59.1911L177.874 32.2631L176.055 31.4329L163.767 58.3609L165.586 59.1911ZM177.869 32.2738C178.335 31.2843 178.844 30.6685 179.352 30.3222L178.225 28.6698C177.325 29.2835 176.618 30.2357 176.06 31.4222L177.869 32.2738ZM179.377 30.3047C179.898 29.9255 180.505 29.728 181.237 29.728V27.728C180.112 27.728 179.087 28.0425 178.2 28.6873L179.377 30.3047ZM181.237 29.728C181.968 29.728 182.575 29.9255 183.096 30.3047L184.273 28.6873C183.386 28.0425 182.361 27.728 181.237 27.728V29.728ZM183.121 30.3222C183.621 30.6632 184.113 31.2698 184.546 32.2516L186.376 31.4444C185.849 30.2502 185.156 29.2888 184.248 28.6698L183.121 30.3222ZM184.552 32.2658L196.936 59.1938L198.753 58.3582L186.369 31.4302L184.552 32.2658ZM196.944 59.2098C197.295 59.9392 197.375 60.5257 197.291 61.0047L199.262 61.3473C199.435 60.3543 199.226 59.3408 198.746 58.3422L196.944 59.2098ZM197.286 61.0409C197.224 61.4941 197.035 61.8127 196.709 62.0616L197.924 63.6504C198.687 63.0673 199.137 62.2659 199.267 61.3111L197.286 61.0409ZM196.74 62.039C196.409 62.273 195.923 62.432 195.205 62.432V64.432C196.214 64.432 197.137 64.207 197.893 63.673L196.74 62.039ZM195.205 62.432C194.266 62.432 193.676 62.2114 193.305 61.8991L192.016 63.4289C192.862 64.1406 193.968 64.432 195.205 64.432V62.432ZM193.325 61.9166C192.906 61.5446 192.467 60.898 192.049 59.8833L190.2 60.6447C190.678 61.806 191.263 62.7594 191.996 63.4114L193.325 61.9166ZM192.043 59.8677L189.163 53.1957L187.327 53.9883L190.207 60.6603L192.043 59.8677ZM187.675 54.4137L190.651 56.4777L191.791 54.8343L188.815 52.7703L187.675 54.4137ZM191.221 54.656H171.205V56.656H191.221V54.656ZM171.775 56.4777L174.751 54.4137L173.611 52.7703L170.635 54.8343L171.775 56.4777ZM173.26 53.2013L170.428 59.8733L172.269 60.6547L175.101 53.9827L173.26 53.2013ZM170.429 59.8701C169.974 60.9337 169.528 61.607 169.127 61.9838L170.498 63.4402C171.186 62.793 171.764 61.8343 172.268 60.6579L170.429 59.8701ZM169.129 61.9825C168.872 62.2232 168.394 62.432 167.509 62.432V64.432C168.671 64.432 169.729 64.1608 170.497 63.4415L169.129 61.9825ZM180.219 36.693L174.075 51.333L175.919 52.107L182.063 37.467L180.219 36.693ZM175.819 51.1508L174.523 49.2788L172.878 50.4172L174.174 52.2892L175.819 51.1508ZM173.701 50.848H188.725V48.848H173.701V50.848ZM187.902 49.2788L186.606 51.1508L188.251 52.2892L189.547 50.4172L187.902 49.2788ZM188.35 51.3305L182.158 36.6905L180.316 37.4695L186.508 52.1095L188.35 51.3305ZM181.237 36.08H181.141V38.08H181.237V36.08ZM203.697 61.992L204.404 61.2849L203.697 61.992ZM203.697 30.168L204.404 30.8751V30.8751L203.697 30.168ZM229.329 33.576L228.645 34.3051L228.653 34.3122L229.329 33.576ZM232.833 53.304L231.903 52.9375L231.9 52.945L232.833 53.304ZM229.329 58.584L230.013 59.3135L229.329 58.584ZM223.665 61.896L223.977 62.8461L223.99 62.8419L223.665 61.896ZM210.129 56.904H209.129V57.904H210.129V56.904ZM220.257 56.232L219.941 55.2833L220.257 56.232ZM223.617 54.216L222.91 53.5089L223.617 54.216ZM225.633 50.856L226.582 51.1722L226.584 51.1656L225.633 50.856ZM223.569 37.944L222.862 38.6511L222.868 38.6574L222.875 38.6636L223.569 37.944ZM210.129 35.256V34.256H209.129V35.256H210.129ZM206.577 62C205.508 62 204.836 61.7161 204.404 61.2849L202.99 62.6991C203.903 63.6119 205.15 64 206.577 64V62ZM204.404 61.2849C203.973 60.8537 203.689 60.1811 203.689 59.112H201.689C201.689 60.5389 202.077 61.7863 202.99 62.6991L204.404 61.2849ZM203.689 59.112V33.048H201.689V59.112H203.689ZM203.689 33.048C203.689 31.9789 203.973 31.3063 204.404 30.8751L202.99 29.4609C202.077 30.3737 201.689 31.6211 201.689 33.048H203.689ZM204.404 30.8751C204.836 30.4439 205.508 30.16 206.577 30.16V28.16C205.15 28.16 203.903 28.5481 202.99 29.4609L204.404 30.8751ZM206.577 30.16H215.937V28.16H206.577V30.16ZM215.937 30.16C221.565 30.16 225.751 31.5882 228.645 34.3051L230.014 32.8469C226.636 29.6758 221.894 28.16 215.937 28.16V30.16ZM228.653 34.3122C231.564 36.9885 233.081 40.851 233.081 46.056H235.081C235.081 40.445 233.43 35.9875 230.006 32.8398L228.653 34.3122ZM233.081 46.056C233.081 48.6748 232.681 50.9628 231.903 52.9375L233.764 53.6705C234.65 51.4212 235.081 48.8772 235.081 46.056H233.081ZM231.9 52.945C231.151 54.8927 230.065 56.5236 228.645 57.8545L230.013 59.3135C231.666 57.7644 232.916 55.8753 233.767 53.663L231.9 52.945ZM228.645 57.8545C227.225 59.1863 225.464 60.2222 223.341 60.9501L223.99 62.8419C226.347 62.0338 228.362 60.8617 230.013 59.3135L228.645 57.8545ZM223.353 60.946C221.234 61.6421 218.767 62 215.937 62V64C218.931 64 221.616 63.6219 223.977 62.846L223.353 60.946ZM215.937 62H206.577V64H215.937V62ZM210.129 57.904H215.505V55.904H210.129V57.904ZM215.505 57.904C217.407 57.904 219.103 57.6708 220.573 57.1807L219.941 55.2833C218.723 55.6892 217.251 55.904 215.505 55.904V57.904ZM220.573 57.1807C222.047 56.6894 223.306 55.9413 224.324 54.9231L222.91 53.5089C222.136 54.2827 221.155 54.8786 219.941 55.2833L220.573 57.1807ZM224.324 54.9231C225.343 53.9049 226.091 52.6459 226.582 51.1722L224.685 50.5398C224.28 51.7541 223.684 52.7351 222.91 53.5089L224.324 54.9231ZM226.584 51.1656C227.072 49.6675 227.305 47.959 227.305 46.056H225.305C225.305 47.801 225.091 49.2925 224.682 50.5464L226.584 51.1656ZM227.305 46.056C227.305 42.257 226.355 39.2426 224.264 37.2244L222.875 38.6636C224.431 40.1654 225.305 42.559 225.305 46.056H227.305ZM224.276 37.2369C222.231 35.1912 219.243 34.256 215.505 34.256V36.256C218.935 36.256 221.324 37.1128 222.862 38.6511L224.276 37.2369ZM215.505 34.256H210.129V36.256H215.505V34.256ZM209.129 35.256V56.904H211.129V35.256H209.129Z" fill="black"/>
</svg>
